<?xml version="1.0" encoding="UTF-8" standalone="no"?>
<svg
   width="1em"
   height="1em"
   viewBox="0 0 56 56"
   version="1.1"
   id="svg1"
   sodipodi:docname="icon.svg"
   xml:space="preserve"
   inkscape:version="1.4 (86a8ad7, 2024-10-11)"
   xmlns:inkscape="http://www.inkscape.org/namespaces/inkscape"
   xmlns:sodipodi="http://sodipodi.sourceforge.net/DTD/sodipodi-0.dtd"
   xmlns:xlink="http://www.w3.org/1999/xlink"
   xmlns="http://www.w3.org/2000/svg"
   xmlns:svg="http://www.w3.org/2000/svg"><defs
     id="defs1"><linearGradient
       id="linearGradient7"
       inkscape:collect="always"><stop
         style="stop-color:#77a6ff;stop-opacity:1;"
         offset="0"
         id="stop7" /><stop
         style="stop-color:#f96bf7;stop-opacity:1;"
         offset="1"
         id="stop8" /></linearGradient><linearGradient
       inkscape:collect="always"
       xlink:href="#linearGradient7"
       id="linearGradient8"
       x1="12.927827"
       y1="46.637909"
       x2="43.113194"
       y2="9.3620853"
       gradientUnits="userSpaceOnUse" /></defs><sodipodi:namedview
     id="namedview1"
     pagecolor="#ffffff"
     bordercolor="#666666"
     borderopacity="1.0"
     inkscape:showpageshadow="2"
     inkscape:pageopacity="0.0"
     inkscape:pagecheckerboard="0"
     inkscape:deskcolor="#d1d1d1"
     showgrid="false"
     showguides="false"
     inkscape:zoom="9.8853528"
     inkscape:cx="51.591482"
     inkscape:cy="20.282534"
     inkscape:window-width="1920"
     inkscape:window-height="1001"
     inkscape:window-x="-9"
     inkscape:window-y="-9"
     inkscape:window-maximized="1"
     inkscape:current-layer="svg1" /><path
     fill="currentColor"
     fill-rule="evenodd"
     d="m4.164 30.791l.734.427l6.146 3.74c1.493.908 3.564.649 4.783-.601l1.16-1.19l2.532 3.866c1.198 1.83 3.558 1.818 4.745-.016l5.546-8.576l6.35 10.86c1.238 2.117 3.784 1.81 4.473-.55l6.931-23.757l.192-.63A23.9 23.9 0 0 1 52.003 28c0 13.255-10.745 24-24 24c-12.31 0-22.456-9.269-23.84-21.209m-.125-4.12C4.73 14.034 15.194 4 28.003 4c6.662 0 12.69 2.714 17.038 7.098l-.768 2.936l-6.297 21.58l-5.746-9.827c-1.124-1.922-3.51-1.974-4.718-.106l-5.63 8.704l-2.259-3.449c-1.12-1.709-3.37-1.927-4.796-.464l-1.455 1.491c-.103.105-.416.145-.546.066l-6.146-3.74z"
     id="path1"
     style="fill:url(#linearGradient8)" /></svg>
